<?xml version="1.0" encoding="iso-8859-1"?>
<!-- Generator: Adobe Illustrator 18.0.0, SVG Export Plug-In . SVG Version: 6.00 Build 0)  -->
<!DOCTYPE svg PUBLIC "-//W3C//DTD SVG 1.1//EN" "http://www.w3.org/Graphics/SVG/1.1/DTD/svg11.dtd">
<svg version="1.1" id="Capa_1" xmlns="http://www.w3.org/2000/svg" xmlns:xlink="http://www.w3.org/1999/xlink" x="0px" y="0px"
	 viewBox="0 0 381.669 381.669" style="enable-background:new 0 0 381.669 381.669;" xml:space="preserve">
<g>
	<path d="M310.237,337.919h-21.16l-5.988-173.524c-0.04-33.845-15.758-44.933-21.68-49.111c-0.27-0.19-23.414-15.993-23.414-15.993
		l4.646-7.9c2.1-3.569,0.908-8.167-2.662-10.268l-4.429-2.605l11.48-19.519l6.673,3.925c1.163,0.684,2.477,1.035,3.803,1.035
		c0.63,0,1.263-0.079,1.883-0.24c1.925-0.499,3.573-1.743,4.582-3.458l11.065-18.814c2.1-3.57,0.908-8.166-2.662-10.267
		L221.128,1.036c-1.716-1.01-3.761-1.296-5.686-0.795c-1.925,0.499-3.573,1.743-4.582,3.458l-11.066,18.814
		c-2.1,3.57-0.908,8.166,2.662,10.267l6.672,3.924l-11.481,19.52l-4.429-2.606c-1.716-1.009-3.76-1.298-5.686-0.795
		c-1.925,0.499-3.573,1.743-4.582,3.457l-72.42,123.127c-2.1,3.57-0.908,8.167,2.662,10.268l8.074,4.749l-13.872,23.585
		c-1.009,1.715-1.294,3.76-0.795,5.687c0.499,1.925,1.743,3.572,3.458,4.581l17.685,10.4c1.194,0.702,2.503,1.036,3.795,1.036
		c2.57,0,5.074-1.322,6.472-3.698l13.871-23.584l8.073,4.748c1.163,0.684,2.477,1.035,3.803,1.035c0.63,0,1.263-0.079,1.883-0.24
		c1.925-0.499,3.573-1.743,4.582-3.457l11.214-19.064l18.146,10.674c4.689,2.758,8.024,7.178,9.391,12.446
		c1.365,5.267,0.599,10.751-2.16,15.44l-32.244,54.823l-12.668-7.451l1.851-3.146c2.1-3.57,0.908-8.167-2.662-10.268l-92.84-54.605
		c-1.716-1.009-3.761-1.296-5.686-0.794c-1.926,0.498-3.574,1.742-4.582,3.457L46.679,235.25c-2.1,3.57-0.907,8.167,2.663,10.267
		l14.065,8.273l-6.793,11.549c-2.1,3.571-0.908,8.168,2.662,10.268l51.776,30.453c1.163,0.684,2.477,1.035,3.803,1.035
		c0.63,0,1.263-0.079,1.883-0.24c1.925-0.499,3.573-1.743,4.582-3.458l6.793-11.55l7.619,4.48l-24.479,41.592H74.292
		c-14.22,0-25.789,11.569-25.789,25.789v10.461c0,4.143,3.357,7.5,7.5,7.5h272.523c4.143,0,7.5-3.357,7.5-7.5v-10.461
		C336.026,349.488,324.457,337.919,310.237,337.919z M219.987,17.769l38.318,22.537l-3.461,5.885l-38.318-22.536L219.987,17.769z
		 M222.058,44.31l12.044,7.084l-11.48,19.519l-0.392-0.23l-11.652-6.854L222.058,44.31z M128.883,221.945l-4.755-2.797
		l10.068-17.119l4.755,2.797L128.883,221.945z M180.387,167.647l-19.292,32.8l-33.832-19.899L192.078,70.35l33.832,19.899
		l-14.175,24.099c-2.906-0.856-5.925-1.312-8.97-1.312c-11.261,0-21.799,6.023-27.504,15.722
		C167.705,141.606,170.212,157.636,180.387,167.647z M188.191,136.363c3.021-5.137,8.605-8.327,14.574-8.327
		c2.987,0,5.938,0.807,8.534,2.333c8.023,4.721,10.712,15.087,5.993,23.109c-3.021,5.137-8.605,8.327-14.574,8.327
		c-2.987,0-5.938-0.807-8.533-2.334C186.162,154.752,183.473,144.385,188.191,136.363z M112.193,289.328l-38.848-22.849l2.99-5.085
		l38.848,22.849L112.193,289.328z M63.41,236.389l3.699-6.29l79.91,47l-3.699,6.29L63.41,236.389z M154.296,294.314l19.132,11.253
		c1.163,0.684,2.477,1.035,3.803,1.035c0.63,0,1.263-0.079,1.883-0.239c1.925-0.5,3.573-1.744,4.582-3.457l36.047-61.288
		c4.79-8.143,6.121-17.666,3.75-26.811c-2.371-9.146-8.163-16.82-16.306-21.609l-18.146-10.675l4.223-7.179
		c3.055,0.953,6.24,1.462,9.456,1.462c11.262,0,21.801-6.024,27.504-15.723c7.646-13,4.985-29.254-5.493-39.238l5.645-9.597
		c0,0,22.087,15.079,22.388,15.292c4.586,3.235,15.327,10.814,15.327,36.986c0,0.087,0.002,0.173,0.005,0.259l5.976,173.134H128.653
		L154.296,294.314z M321.026,366.669H63.503v-2.961c0-5.949,4.84-10.789,10.789-10.789h235.945c5.949,0,10.789,4.84,10.789,10.789
		V366.669z"/>
</g>
<g>
</g>
<g>
</g>
<g>
</g>
<g>
</g>
<g>
</g>
<g>
</g>
<g>
</g>
<g>
</g>
<g>
</g>
<g>
</g>
<g>
</g>
<g>
</g>
<g>
</g>
<g>
</g>
<g>
</g>
</svg>
